HIERARCHY
ROOT Hips
{
	OFFSET 193.614899 90.217430 358.243408
	CHANNELS 6 Xposition Yposition Zposition Zrotation Yrotation Xrotation 
	JOINT LeftUpLeg
	{
		OFFSET 0.103457 1.857820 10.548506
		CHANNELS 3 Zrotation Yrotation Xrotation
		JOINT LeftLeg
		{
			OFFSET 43.500000 -0.000019 0.000002
			CHANNELS 3 Zrotation Yrotation Xrotation
			JOINT LeftFoot
			{
				OFFSET 42.372200 -0.000004 0.000003
				CHANNELS 3 Zrotation Yrotation Xrotation
				JOINT LeftToe
				{
					OFFSET 17.300009 0.000002 0.000006
					CHANNELS 3 Zrotation Yrotation Xrotation
					End Site
					{
						OFFSET 0.000000 0.000000 0.000000
					}
				}
			}
		}
	}
	JOINT RightUpLeg
	{
		OFFSET 0.103459 1.857818 -10.548504
		CHANNELS 3 Zrotation Yrotation Xrotation
		JOINT RightLeg
		{
			OFFSET 43.500042 -0.000015 0.000010
			CHANNELS 3 Zrotation Yrotation Xrotation
			JOINT RightFoot
			{
				OFFSET 42.372261 -0.000008 0.000010
				CHANNELS 3 Zrotation Yrotation Xrotation
				JOINT RightToe
				{
					OFFSET 17.299995 -0.000005 0.000000
					CHANNELS 3 Zrotation Yrotation Xrotation
					End Site
					{
						OFFSET 0.000000 0.000000 0.000000
					}
				}
			}
		}
	}
	JOINT Spine
	{
		OFFSET 6.901967 -2.603743 0.000001
		CHANNELS 3 Zrotation Yrotation Xrotation
		JOINT Spine1
		{
			OFFSET 12.588100 0.000016 -0.000005
			CHANNELS 3 Zrotation Yrotation Xrotation
			JOINT Spine2
			{
				OFFSET 12.343201 -0.000011 -0.000005
				CHANNELS 3 Zrotation Yrotation Xrotation
				JOINT Neck
				{
					OFFSET 25.832895 0.000008 0.000006
					CHANNELS 3 Zrotation Yrotation Xrotation
					JOINT Head
					{
						OFFSET 11.766613 -0.000004 -0.000002
						CHANNELS 3 Zrotation Yrotation Xrotation
						End Site
						{
							OFFSET 0.000000 0.000000 0.000000
						}
					}
				}
				JOINT LeftShoulder
				{
					OFFSET 19.745897 -1.480371 6.000116
					CHANNELS 3 Zrotation Yrotation Xrotation
					JOINT LeftArm
					{
						OFFSET 11.284124 -0.000012 -0.000008
						CHANNELS 3 Zrotation Yrotation Xrotation
						JOINT LeftForeArm
						{
							OFFSET 33.000046 0.000002 0.000022
							CHANNELS 3 Zrotation Yrotation Xrotation
							JOINT LeftHand
							{
								OFFSET 25.200014 0.000006 0.000015
								CHANNELS 3 Zrotation Yrotation Xrotation
								End Site
								{
									OFFSET 0.000000 0.000000 0.000000
								}
							}
						}
					}
				}
				JOINT RightShoulder
				{
					OFFSET 19.746101 -1.480377 -6.000068
					CHANNELS 3 Zrotation Yrotation Xrotation
					JOINT RightArm
					{
						OFFSET 11.284134 -0.000035 -0.000008
						CHANNELS 3 Zrotation Yrotation Xrotation
						JOINT RightForeArm
						{
							OFFSET 33.000092 0.000019 0.000006
							CHANNELS 3 Zrotation Yrotation Xrotation
							JOINT RightHand
							{
								OFFSET 25.199776 0.000139 0.000431
								CHANNELS 3 Zrotation Yrotation Xrotation
								End Site
								{
									OFFSET 0.000000 0.000000 0.000000
								}
							}
						}
					}
				}
			}
		}
	}
}
MOTION
Frames: 7
Frame Time: 0.033333
93.158852 81.159126 563.248413 63.586712 9.224864 -173.407411 115.831703 6.014099 174.863225 -67.562613 2.523939 10.023329 87.894173 -2.177839 24.861040 21.454555 0.003092 0.000001 138.126055 6.224397 156.706697 -133.578406 -2.051256 -8.954658 53.600357 18.090231 21.280090 21.454562 -0.003109 -0.000015 8.358382 -1.100580 3.020072 6.643501 -2.372185 5.973357 6.327007 -2.335998 5.987512 -20.682354 -5.295039 13.885509 -28.747549 -17.762192 20.437644 -155.614987 -72.649300 -26.448968 -15.609909 62.004860 21.608432 -70.781380 -18.409267 2.763636 5.701589 1.253359 37.513537 142.346948 74.105927 -37.103025 -5.492420 -58.833153 -4.010845 -94.260374 2.326334 -2.700096 -22.751111 10.281667 -19.916528 
96.759033 81.423180 564.317688 68.144456 14.419649 -166.023375 121.594620 5.700192 176.660726 -68.532718 3.891925 9.186311 90.356675 -1.739886 27.334625 21.454551 0.003092 0.000001 132.039728 6.579698 156.269783 -132.317908 -2.221100 -9.062888 54.718196 18.370933 22.217714 21.454555 -0.003110 -0.000021 8.675853 0.725301 2.617812 7.368963 1.282736 5.276684 7.052249 1.314673 5.268880 -17.976064 0.691540 17.249156 -31.059671 -22.966895 29.512455 -155.172008 -74.204111 -26.869997 -13.394499 65.997925 15.451332 -74.956750 -17.883891 2.904427 4.260872 0.229227 46.124633 151.767077 70.671899 -27.724132 2.250811 -63.855582 -5.064817 -84.260239 3.832610 -2.360438 -25.214232 29.034369 -21.526997 
100.044502 81.732117 565.148987 73.902701 18.737821 -158.591132 127.485522 5.330793 -177.925800 -69.159784 5.079536 8.572256 93.103552 -1.979621 27.557037 21.454553 0.003091 0.000002 126.394563 5.787505 157.734094 -128.122109 -2.616855 -5.773620 61.346143 12.580819 18.417318 21.454560 -0.003108 -0.000017 9.310850 2.238682 1.823397 8.687324 4.334188 3.812422 8.368995 4.357255 3.786190 -17.792523 12.171758 16.525721 -35.575867 -21.310750 33.616234 -145.183976 -77.868910 -36.964967 -5.370434 71.433247 3.254363 -85.808869 -6.408064 2.568176 0.278679 -1.079574 43.744595 148.711906 69.971989 -30.896982 10.773513 -61.849521 -7.413462 -79.517520 4.499560 -2.200351 -4.499264 25.149226 0.988740 
103.312500 82.579102 565.311890 78.880174 21.322210 -153.042109 133.486075 4.459302 -171.289137 -68.088728 5.015067 7.876538 95.291336 -2.156492 26.699879 21.454555 0.003092 -0.000000 120.094014 3.828509 159.978535 -122.209911 -3.156460 1.937268 70.070562 3.146758 12.442116 21.454555 -0.003106 -0.000015 9.936626 3.415328 1.679995 9.984196 6.672892 3.655224 9.664426 6.694965 3.614766 -18.606019 18.046051 12.332902 -42.069966 -14.764291 29.577687 -135.354979 -80.082930 -46.850948 -6.353613 70.406806 -8.823786 -98.405882 0.579174 2.638723 -1.864570 -4.776034 32.457752 152.230997 71.679700 -27.186012 22.634581 -55.135985 -10.063219 -87.445969 1.682499 -2.350961 -0.340928 13.153284 18.424302 
106.330299 83.849312 564.785583 82.204803 22.068046 -149.461915 139.522733 3.160510 -167.596163 -64.750706 4.935799 7.815085 96.606059 -2.497402 25.986156 21.454550 0.003091 0.000002 114.572578 1.501297 161.040097 -115.637807 -3.848836 8.846771 79.188981 -3.171466 11.182258 21.454563 -0.003110 -0.000013 10.384398 3.983007 1.638946 10.906147 7.793674 3.655699 10.585532 7.815731 3.608377 -16.667857 22.066442 7.784955 -50.155913 -11.035404 25.554681 -122.985930 -83.771437 -59.129077 -7.751134 64.651893 -21.014173 -110.519202 3.507654 2.968183 -4.964772 -14.993370 21.246813 165.033940 74.350618 -13.946055 27.663173 -49.108353 -9.293523 -95.369467 1.108122 -2.664705 -7.603595 16.957709 -2.554800 
108.955498 85.652840 563.514526 84.226246 22.425738 -147.866096 145.608295 0.830997 -166.754807 -58.859223 4.804037 8.424477 96.798561 -2.942140 25.869941 21.454550 0.003092 -0.000000 108.448863 -1.401601 162.127668 -109.603001 -4.099073 10.883114 81.936363 -5.565966 8.272361 21.454558 -0.003107 -0.000017 10.794917 4.416489 1.183240 11.718231 8.690254 2.817662 11.396517 8.707234 2.764795 -17.642640 21.718962 6.253766 -48.756844 -11.498502 24.065652 -99.730037 -85.605281 -82.360887 -1.700766 53.614581 -24.383109 -117.788702 4.624949 3.199306 -0.819848 -37.819615 -2.114276 167.552013 78.725546 -11.197995 29.907957 -43.345784 -11.507515 -99.767644 1.428306 -2.883974 -10.791862 20.277143 -5.712926 
111.218697 87.969017 561.461304 84.316336 22.932971 -148.143675 151.125039 -1.626494 -167.872799 -50.438007 4.155148 9.606704 94.654783 -3.184183 26.152694 21.454550 0.003092 -0.000000 101.989682 -4.175511 165.336518 -104.027804 -3.974737 11.456867 79.301174 -6.261352 6.757706 21.454560 -0.003111 -0.000021 10.825011 4.785664 0.619037 11.749496 9.483500 1.729106 11.426760 9.493900 1.671312 -17.122480 16.100189 8.276246 -44.508385 -12.870881 23.787561 -90.703061 -84.989410 -91.479913 4.720826 39.757647 -25.351818 -116.219494 4.930980 3.112924 -8.961701 -57.113413 -2.797038 157.988081 81.628766 -20.762908 30.199552 -33.987896 -14.516838 -101.605204 1.023456 -2.937749 -9.968548 19.431914 5.424217 
